{"title":"No Good Deed 2014 Cam XviD.Feel-Free","uid":11072012,"size":753855895,"categoryP":"video","categoryS":"movies","magnet":"?xt=urn:btih:88b149943b83d56f7d3e616c8e726dd824020945&amp;dn=No+Good+Deed+2014+Cam+XviD.Feel-Free&amp;tr=udp%3A%2F%2Ftracker.openbittorrent.com%3A80&amp;tr=udp%3A%2F%2Fopen.demonii.com%3A1337&amp;tr=udp%3A%2F%2Ftracker.coppersurfer.tk%3A6969&amp;tr=udp%3A%2F%2Fexodus.desync.com%3A6969","seeders":1,"leechers":0,"uploader":"inovai","files":7,"time":1411287423,"description":"No Good Deed 2014 Cam XviD.Feel-Free\n\nCover:\n  &lt;a href=&quot;\nhttp://forum.primetimeshow.in/viewtopic.php?f=7&amp;t=706&quot; rel=&quot;nofollow&quot; target=&quot;_NEW&quot;&gt;\nhttp://forum.primetimeshow.in/viewtopic.php?f=7&amp;t=706&lt;/a&gt;\n\nScreenshots:\n &lt;a href=&quot;\nhttp://m.primetimeshow.in/share-8F64_541E6CEC.html&quot; rel=&quot;nofollow&quot; target=&quot;_NEW&quot;&gt;\nhttp://m.primetimeshow.in/share-8F64_541E6CEC.html&lt;/a&gt;\n &lt;a href=&quot;\nhttp://m.primetimeshow.in/share-513F_541E6CEC.html&quot; rel=&quot;nofollow&quot; target=&quot;_NEW&quot;&gt;\nhttp://m.primetimeshow.in/share-513F_541E6CEC.html&lt;/a&gt;\n &lt;a href=&quot;\nhttp://m.primetimeshow.in/share-5292_541E6CEC.html&quot; rel=&quot;nofollow&quot; target=&quot;_NEW&quot;&gt;\nhttp://m.primetimeshow.in/share-5292_541E6CEC.html&lt;/a&gt;\n  &lt;a href=&quot;\nhttp://m.primetimeshow.in/share-69B3_541D90CF.html&quot; rel=&quot;nofollow&quot; target=&quot;_NEW&quot;&gt;\nhttp://m.primetimeshow.in/share-69B3_541D90CF.html&lt;/a&gt;\n  &lt;a href=&quot;\nhttp://m.primetimeshow.in/share-1EAE_541D90CF.html&quot; rel=&quot;nofollow&quot; target=&quot;_NEW&quot;&gt;\nhttp://m.primetimeshow.in/share-1EAE_541D90CF.html&lt;/a&gt;\n  &lt;a href=&quot;\nhttp://m.primetimeshow.in/share-7C1A_541D90CF.html&quot; rel=&quot;nofollow&quot; target=&quot;_NEW&quot;&gt;\nhttp://m.primetimeshow.in/share-7C1A_541D90CF.html&lt;/a&gt;\n  &lt;a href=&quot;\nhttp://m.primetimeshow.in/share-1563_541D90CF.html&quot; rel=&quot;nofollow&quot; target=&quot;_NEW&quot;&gt;\nhttp://m.primetimeshow.in/share-1563_541D90CF.html&lt;/a&gt;\n  &lt;a href=&quot;\nhttp://m.primetimeshow.in/share-DB42_541D90CF.html&quot; rel=&quot;nofollow&quot; target=&quot;_NEW&quot;&gt;\nhttp://m.primetimeshow.in/share-DB42_541D90CF.html&lt;/a&gt;\n\nGenre:Crime,Horror,Thriller\nLanguage:English\nIMDb:http://www.imdb.com/title/tt2011159/\nSource:RBG Thanks\nSample:Never\nEncoder:Tony\n\n\n\nFormat : AVI\nFormat/Info : Audio Video Interleave\nFile size : 718 MiB\nDuration : 1h 20mn\nOverall bit rate : 1 253 Kbps\nWriting application : VirtualDubMod 1.5.10.2 (build 2540/release)\nWriting library : VirtualDubMod build 2540/release\n\nVideo\nID : 0\nFormat : MPEG-4 Visual\nFormat profile : Advanced Simple@L5\nFormat settings, BVOP : 1\nFormat settings, QPel : No\nFormat settings, GMC : No warppoints\nFormat settings, Matrix : Default (H.263)\nCodec ID : XVID\nCodec ID/Hint : XviD\nDuration : 1h 20mn\nBit rate : 1 083 Kbps\nWidth : 640 pixels\nHeight : 248 pixels\nDisplay aspect ratio : 2.581\nFrame rate : 23.976 fps\nColor space : YUV\nChroma subsampling : 4:2:0\nBit depth : 8 bits\nScan type : Progressive\nCompression mode : Lossy\nBits/(Pixel*Frame) : 0.285\nStream size : 621 MiB (86%)\nWriting library : XviD 1.2.1 (UTC 2008-12-04)\n\nAudio\nID : 1\nFormat : AC-3\nFormat/Info : Audio Coding 3\nMode extension : CM (complete main)\nCodec ID : 2000\nDuration : 1h 20mn\nBit rate mode : Constant\nBit rate : 160 Kbps\nChannel(s) : 2 channels\nChannel positions : Front: L R\nSampling rate : 48.0 KHz\nBit depth : 16 bits\nCompression mode : Lossy\nStream size : 91.7 MiB (13%)\nAlignment : Aligned on interleaves\nInterleave, duration : 42 ms (1.00 video frame)\nInterleave, preload duration : 512 ms\n\nThanks to Feel-Free!!\n\nSeed n Enjoy!!","torrent":{"xt":"urn:btih:88b149943b83d56f7d3e616c8e726dd824020945","amp;dn":"No+Good+Deed+2014+Cam+XviD.Feel-Free","amp;tr":["udp%3A%2F%2Ftracker.openbittorrent.com%3A80","udp%3A%2F%2Fopen.demonii.com%3A1337","udp%3A%2F%2Ftracker.coppersurfer.tk%3A6969","udp%3A%2F%2Fexodus.desync.com%3A6969"],"infoHash":"88b149943b83d56f7d3e616c8e726dd824020945","infoHashBuffer":{"type":"Buffer","data":[136,177,73,148,59,131,213,111,125,62,97,108,142,114,109,216,36,2,9,69]},"announce":[],"urlList":[]}}